# xmcd
#
# Track frame offsets:
#	150
#	13147
#	30430
#	43517
#	55401
#	66023
#	84666
#	98125
#	110710
#	125572
#	137859
#
# Disc length: 2261 seconds
#
# Revision: 0
# Processed by: cddbd v1.5.1PL2 Copyright (c) Steve Scherf et al.
# Submitted via: dBpowerAMP V4.0
#
DISCID=9708d30b
DTITLE=The Statler Brothers - Christmas Card
DYEAR=1990
DGENRE=Country
TTITLE0=The Statler Brothers - I Believe In Santa's Clause
TTITLE1=The Statler Brothers - I'll Be Home For Christmas
TTITLE2=The Statler Brothers - Jingle Bells
TTITLE3=The Statler Bros - I Never Spend A Christmas That I Don't Think of You
TTITLE4=The Statler Brothers - White Christmas
TTITLE5=The Statler Brothers - Christmas To Me
TTITLE6=The Statler Brothers - Who Do You Think
TTITLE7=The Statler Brothers - Away In A Manger
TTITLE8=The Statler Brothers - Something You Can't Buy
TTITLE9=The Statler Brothers - Carols Those Kids Used To Sing
TTITLE10=The Statler Brothers - Christmas Medley
EXTD=
EXTT0=
EXTT1=
EXTT2=
EXTT3=
EXTT4=
EXTT5=
EXTT6=
EXTT7=
EXTT8=
EXTT9=
EXTT10=
PLAYORDER=
